<svg width="56" height="32" viewBox="0 0 56 32" fill="none" xmlns="http://www.w3.org/2000/svg">
<path fill-rule="evenodd" clip-rule="evenodd" d="M4.4375 10.7736L4.43757 16.2289L5.67464 16.2345C6.80335 16.2395 6.97005 16.2579 7.5765 16.4442C9.63081 17.075 11.2297 18.4498 12.0884 20.3237C12.4374 21.0856 12.6172 21.811 12.7443 22.9702C12.998 25.2846 13.7546 26.5236 14.8147 26.9904C15.2299 27.1733 15.5765 27.3628 16.2549 27.3628C16.8422 27.3628 17.8938 27.3086 18.7661 25.8361C19.6925 24.2723 20.3513 22.4372 20.8112 20.0891C21.3881 17.144 20.9841 13.9418 20.6421 12.404C20.0421 9.70692 18.9135 7.46926 17.615 6.40278C17.0906 5.97202 16.3511 5.58907 15.8266 5.47669C15.262 5.35575 14.0018 5.37198 13.4883 5.50685C12.4344 5.78368 11.0398 6.66092 10.6416 8.14839C10.3717 9.15692 10.6812 10.4251 10.9194 10.9162C11.5604 12.2376 12.3351 12.906 14.9993 14.4371C17.4779 15.8614 18.0939 16.4798 18.332 17.7826C18.4917 18.6567 18.1961 19.4634 17.5575 19.8957C17.0915 20.2112 16.6954 20.3126 16.1072 20.2673C15.1556 20.194 14.5226 19.7639 13.8586 18.7392C13.6009 18.3416 12.0278 15.62 10.3628 12.6913C8.69768 9.76262 7.07382 6.90653 6.75423 6.34454L6.17318 5.3226L5.30534 5.32052L4.4375 5.31836V10.7736ZM24.2317 7.2547V9.19103H26.3366H28.4416V7.2547V5.31836H26.3366H24.2317V7.2547ZM31.913 16.4151V27.3628H34.018H36.1229V16.4151V5.46731H34.018H31.913V16.4151ZM39.5943 16.4151V27.3628H41.6993H43.8043V16.4151V5.46731H41.6993H39.5943V16.4151ZM24.2317 19.2823V27.3628H26.3366H28.4416V19.2823V11.2018H26.3366H24.2317V19.2823ZM47.0541 25.1658V27.3628H49.3068H51.5595V25.1658V22.9688H49.3068H47.0541V25.1658Z" fill="white"/>
</svg>
