<svg width="48" height="9" viewBox="0 0 48 9" fill="none" xmlns="http://www.w3.org/2000/svg">
<path fill-rule="evenodd" clip-rule="evenodd" d="M0 2.56485L7.38579e-05 4.5669L1.23714 4.56895C2.36585 4.5708 2.53255 4.57755 3.139 4.64591C5.19331 4.87741 6.79221 5.38198 7.65089 6.06967C7.99995 6.34928 8.17972 6.61549 8.30683 7.0409C8.56054 7.89029 9.31707 8.34498 10.3772 8.51632C10.7924 8.58345 11.139 8.65298 11.8174 8.65298C12.4047 8.65298 13.4563 8.63308 14.3286 8.09268C15.255 7.5188 15.9138 6.84532 16.3737 5.98358C16.9506 4.90276 16.5466 3.72754 16.2046 3.1632C15.6046 2.17338 14.476 1.35217 13.1775 0.960782C12.6531 0.802695 11.9136 0.662156 11.3891 0.620912C10.8245 0.576526 9.56428 0.582484 9.05081 0.631982C7.99692 0.733573 6.6023 1.05552 6.20414 1.60141C5.93419 1.97153 6.24366 2.43697 6.48185 2.61719C7.12295 3.10211 7.89758 3.34744 10.5618 3.90932C13.0404 4.43204 13.6564 4.65898 13.8945 5.13709C14.0542 5.45788 13.7586 5.75396 13.12 5.9126C12.654 6.02837 12.2579 6.0656 11.6697 6.04898C10.7181 6.02209 10.0851 5.86422 9.42114 5.48816C9.16345 5.34224 7.59033 4.34346 5.92525 3.26864C4.26018 2.19382 2.63632 1.14565 2.31673 0.939408L1.73568 0.564363L0.867842 0.563598L0 0.562805V2.56485ZM19.7942 1.27343V1.98405H21.8991H24.0041V1.27343V0.562805H21.8991H19.7942V1.27343ZM27.4755 4.63522V8.65298H29.5805H31.6854V4.63522V0.617469H29.5805H27.4755V4.63522ZM35.1568 4.63522V8.65298H37.2618H39.3668V4.63522V0.617469H37.2618H35.1568V4.63522ZM19.7942 5.68749V8.65298H21.8991H24.0041V5.68749V2.72201H21.8991H19.7942V5.68749ZM42.6166 7.8467V8.65298H44.8693H47.122V7.8467V7.04041H44.8693H42.6166V7.8467Z" fill="white"/>
</svg>
